<svg xmlns="http://www.w3.org/2000/svg" viewBox="0 0 960 600" fill="none">
  <defs>
    <linearGradient id="specGrad" x1="0" y1="0" x2="0" y2="1">
      <stop offset="0%" stop-color="#22c55e" stop-opacity="0.6"/>
      <stop offset="100%" stop-color="#22c55e" stop-opacity="0"/>
    </linearGradient>
    <linearGradient id="wfGrad" x1="0" y1="0" x2="0" y2="1">
      <stop offset="0%" stop-color="#06b6d4"/>
      <stop offset="30%" stop-color="#3b82f6"/>
      <stop offset="60%" stop-color="#8b5cf6"/>
      <stop offset="100%" stop-color="#06060a"/>
    </linearGradient>
    <clipPath id="specClip"><rect x="22" y="84" width="590" height="140"/></clipPath>
    <clipPath id="wfClip"><rect x="22" y="224" width="590" height="120"/></clipPath>
  </defs>

  <!-- Window frame -->
  <rect width="960" height="600" rx="12" fill="#06060a"/>
  <rect x="1" y="1" width="958" height="598" rx="11" fill="none" stroke="rgba(255,255,255,0.06)"/>

  <!-- ═══ TOPBAR ═══ -->
  <rect x="0" y="0" width="960" height="58" rx="12" fill="#0c0c14"/>
  <rect x="0" y="12" width="960" height="46" fill="#0c0c14"/>
  <line x1="0" y1="58" x2="960" y2="58" stroke="rgba(255,255,255,0.06)"/>

  <!-- Logo -->
  <circle cx="30" cy="29" r="10" fill="rgba(34,197,94,0.15)" stroke="#22c55e" stroke-width="1"/>
  <text x="30" y="33" text-anchor="middle" fill="#22c55e" font-family="monospace" font-size="10" font-weight="700">S</text>
  <text x="52" y="27" fill="#f0f0f5" font-family="Inter, system-ui, sans-serif" font-size="13" font-weight="700">Sigint</text>
  <text x="52" y="39" fill="#484860" font-family="monospace" font-size="8">v1.0</text>

  <!-- Frequency display -->
  <rect x="110" y="12" width="200" height="34" rx="6" fill="#12121e" stroke="rgba(255,255,255,0.06)"/>
  <text x="125" y="34" fill="#22c55e" font-family="monospace" font-size="18" font-weight="700">434.000</text>
  <text x="258" y="30" fill="#484860" font-family="monospace" font-size="10">MHz</text>
  <text x="295" y="34" fill="#f59e0b" font-family="monospace" font-size="10" font-weight="600">TETRA</text>

  <!-- Scan controls -->
  <rect x="340" y="16" width="60" height="26" rx="5" fill="rgba(34,197,94,0.12)" stroke="#22c55e" stroke-width="1"/>
  <text x="370" y="33" text-anchor="middle" fill="#22c55e" font-family="Inter, system-ui, sans-serif" font-size="10" font-weight="600">Scan</text>

  <rect x="406" y="16" width="50" height="26" rx="5" fill="rgba(255,255,255,0.04)" stroke="rgba(255,255,255,0.08)"/>
  <text x="431" y="33" text-anchor="middle" fill="#707088" font-family="Inter, system-ui, sans-serif" font-size="10">Stop</text>

  <rect x="462" y="16" width="50" height="26" rx="5" fill="rgba(255,255,255,0.04)" stroke="rgba(255,255,255,0.08)"/>
  <text x="487" y="33" text-anchor="middle" fill="#707088" font-family="Inter, system-ui, sans-serif" font-size="10">Skip</text>

  <!-- +CH button -->
  <rect x="522" y="16" width="46" height="26" rx="5" fill="rgba(6,182,212,0.12)" stroke="#06b6d4" stroke-width="1"/>
  <text x="545" y="33" text-anchor="middle" fill="#06b6d4" font-family="Inter, system-ui, sans-serif" font-size="10" font-weight="600">+ CH</text>

  <!-- Scan indicator -->
  <circle cx="586" cy="29" r="4" fill="#22c55e" opacity="0.8"/>
  <circle cx="586" cy="29" r="6" fill="none" stroke="#22c55e" stroke-width="0.5" opacity="0.4"/>
  <text x="598" y="33" fill="#22c55e" font-family="monospace" font-size="9">SCANNING</text>

  <!-- Signal meter -->
  <rect x="680" y="18" width="80" height="6" rx="3" fill="#12121e"/>
  <rect x="680" y="18" width="52" height="6" rx="3" fill="#22c55e"/>
  <text x="680" y="38" fill="#484860" font-family="monospace" font-size="8">-38 dBFS</text>

  <!-- Right controls -->
  <rect x="790" y="16" width="26" height="26" rx="5" fill="rgba(255,255,255,0.04)" stroke="rgba(255,255,255,0.08)"/>
  <text x="803" y="33" text-anchor="middle" fill="#707088" font-family="monospace" font-size="12">⚙</text>

  <rect x="822" y="16" width="26" height="26" rx="5" fill="rgba(255,255,255,0.04)" stroke="rgba(255,255,255,0.08)"/>
  <text x="835" y="33" text-anchor="middle" fill="#707088" font-family="monospace" font-size="11">◉</text>

  <!-- Status -->
  <circle cx="870" cy="24" r="3" fill="#22c55e"/>
  <text x="878" y="27" fill="#484860" font-family="monospace" font-size="8">LIVE</text>
  <text x="870" y="40" fill="#484860" font-family="monospace" font-size="7">192.168.3.217</text>

  <!-- ═══ SPECTRUM / WATERFALL PANEL ═══ -->
  <rect x="16" y="68" width="600" height="282" rx="8" fill="#0c0c14" stroke="rgba(255,255,255,0.06)"/>

  <!-- Spectrum section label -->
  <text x="30" y="82" fill="#484860" font-family="monospace" font-size="8">SPECTRUM</text>
  <text x="580" y="82" text-anchor="end" fill="#484860" font-family="monospace" font-size="7">Span: 2 MHz</text>

  <!-- dB scale -->
  <text x="18" y="100" fill="#3a3a50" font-family="monospace" font-size="7">0</text>
  <text x="14" y="140" fill="#3a3a50" font-family="monospace" font-size="7">-30</text>
  <text x="14" y="180" fill="#3a3a50" font-family="monospace" font-size="7">-60</text>
  <text x="14" y="218" fill="#3a3a50" font-family="monospace" font-size="7">-90</text>

  <!-- Grid lines -->
  <line x1="32" y1="97" x2="608" y2="97" stroke="rgba(255,255,255,0.03)"/>
  <line x1="32" y1="137" x2="608" y2="137" stroke="rgba(255,255,255,0.03)"/>
  <line x1="32" y1="177" x2="608" y2="177" stroke="rgba(255,255,255,0.03)"/>
  <line x1="32" y1="217" x2="608" y2="217" stroke="rgba(255,255,255,0.03)"/>

  <!-- Spectrum trace (stylized) -->
  <g clip-path="url(#specClip)">
    <polyline points="32,200 50,198 68,195 86,192 104,188 122,185 140,178 150,172 158,155 165,120 170,105 175,98 180,95 185,92 190,95 195,98 200,108 208,130 216,160 234,175 252,180 270,183 288,178 300,172 310,155 315,140 320,132 325,128 328,126 332,128 336,135 342,150 352,168 370,178 388,182 406,185 424,188 440,180 450,170 458,148 462,130 466,120 470,115 474,118 478,125 486,145 500,168 518,180 536,184 554,186 572,188 590,190 608,192" fill="none" stroke="#22c55e" stroke-width="1.5"/>
    <polyline points="32,200 50,198 68,195 86,192 104,188 122,185 140,178 150,172 158,155 165,120 170,105 175,98 180,95 185,92 190,95 195,98 200,108 208,130 216,160 234,175 252,180 270,183 288,178 300,172 310,155 315,140 320,132 325,128 328,126 332,128 336,135 342,150 352,168 370,178 388,182 406,185 424,188 440,180 450,170 458,148 462,130 466,120 470,115 474,118 478,125 486,145 500,168 518,180 536,184 554,186 572,188 590,190 608,192 608,224 32,224" fill="url(#specGrad)"/>
  </g>

  <!-- Center marker -->
  <line x1="320" y1="88" x2="320" y2="224" stroke="#f43f5e" stroke-width="0.5" stroke-dasharray="3 3"/>
  <text x="320" y="218" text-anchor="middle" fill="#f43f5e" font-family="monospace" font-size="7">434.000</text>

  <!-- Noise floor -->
  <line x1="32" y1="195" x2="608" y2="195" stroke="rgba(245,158,11,0.2)" stroke-width="0.5" stroke-dasharray="2 4"/>
  <text x="608" y="193" text-anchor="end" fill="#f59e0b" font-family="monospace" font-size="6" opacity="0.5">noise floor</text>

  <!-- Waterfall section -->
  <line x1="22" y1="224" x2="608" y2="224" stroke="rgba(255,255,255,0.06)"/>
  <text x="30" y="236" fill="#484860" font-family="monospace" font-size="8">WATERFALL</text>

  <!-- Waterfall bands (stylized) -->
  <g clip-path="url(#wfClip)" opacity="0.7">
    <!-- Row 1 -->
    <rect x="155" y="240" width="40" height="4" rx="1" fill="#22c55e" opacity="0.8"/>
    <rect x="310" y="240" width="30" height="4" rx="1" fill="#06b6d4" opacity="0.6"/>
    <rect x="455" y="240" width="35" height="4" rx="1" fill="#3b82f6" opacity="0.5"/>
    <!-- Row 2 -->
    <rect x="155" y="248" width="42" height="4" rx="1" fill="#22c55e" opacity="0.7"/>
    <rect x="310" y="248" width="28" height="4" rx="1" fill="#06b6d4" opacity="0.5"/>
    <rect x="455" y="248" width="33" height="4" rx="1" fill="#3b82f6" opacity="0.4"/>
    <!-- Row 3 -->
    <rect x="156" y="256" width="38" height="4" rx="1" fill="#22c55e" opacity="0.6"/>
    <rect x="312" y="256" width="26" height="4" rx="1" fill="#8b5cf6" opacity="0.4"/>
    <rect x="456" y="256" width="30" height="4" rx="1" fill="#3b82f6" opacity="0.3"/>
    <!-- Rows fade out -->
    <rect x="157" y="264" width="36" height="4" rx="1" fill="#22c55e" opacity="0.5"/>
    <rect x="158" y="272" width="34" height="4" rx="1" fill="#22c55e" opacity="0.4"/>
    <rect x="159" y="280" width="32" height="4" rx="1" fill="#22c55e" opacity="0.3"/>
    <rect x="160" y="288" width="30" height="4" rx="1" fill="#22c55e" opacity="0.2"/>
    <rect x="161" y="296" width="28" height="4" rx="1" fill="#22c55e" opacity="0.15"/>
    <rect x="162" y="304" width="26" height="4" rx="1" fill="#22c55e" opacity="0.1"/>
    <rect x="163" y="312" width="24" height="4" rx="1" fill="#22c55e" opacity="0.05"/>

    <rect x="313" y="264" width="24" height="4" rx="1" fill="#8b5cf6" opacity="0.3"/>
    <rect x="314" y="272" width="22" height="4" rx="1" fill="#8b5cf6" opacity="0.2"/>
    <rect x="315" y="280" width="20" height="4" rx="1" fill="#8b5cf6" opacity="0.15"/>
    <rect x="316" y="288" width="18" height="4" rx="1" fill="#8b5cf6" opacity="0.1"/>
  </g>

  <!-- Freq axis -->
  <text x="32" y="344" fill="#3a3a50" font-family="monospace" font-size="7">433.0</text>
  <text x="170" y="344" fill="#3a3a50" font-family="monospace" font-size="7">433.5</text>
  <text x="310" y="344" text-anchor="middle" fill="#3a3a50" font-family="monospace" font-size="7">434.0</text>
  <text x="450" y="344" fill="#3a3a50" font-family="monospace" font-size="7">434.5</text>
  <text x="580" y="344" fill="#3a3a50" font-family="monospace" font-size="7">435.0</text>

  <!-- ═══ EVENT STREAM PANEL ═══ -->
  <rect x="16" y="358" width="600" height="230" rx="8" fill="#0c0c14" stroke="rgba(255,255,255,0.06)"/>
  <text x="30" y="375" fill="#484860" font-family="monospace" font-size="8">EVENT STREAM</text>
  <text x="580" y="375" text-anchor="end" fill="#484860" font-family="monospace" font-size="7">auto-scroll ↓</text>

  <!-- Event rows -->
  <!-- Row 1 -->
  <rect x="24" y="382" width="584" height="24" rx="3" fill="rgba(34,197,94,0.04)"/>
  <text x="32" y="398" fill="#484860" font-family="monospace" font-size="8">14:23:01</text>
  <rect x="90" y="387" width="50" height="14" rx="3" fill="rgba(34,197,94,0.12)"/>
  <text x="115" y="398" text-anchor="middle" fill="#22c55e" font-family="monospace" font-size="8" font-weight="600">REG</text>
  <text x="150" y="398" fill="#b0b0c0" font-family="monospace" font-size="8">ISSI 09001234 registered on cell 0x1A03</text>
  <text x="520" y="398" fill="#484860" font-family="monospace" font-size="8">MCC:901 MNC:16384</text>

  <!-- Row 2 -->
  <rect x="24" y="410" width="584" height="24" rx="3" fill="rgba(6,182,212,0.04)"/>
  <text x="32" y="426" fill="#484860" font-family="monospace" font-size="8">14:23:03</text>
  <rect x="90" y="415" width="50" height="14" rx="3" fill="rgba(6,182,212,0.12)"/>
  <text x="115" y="426" text-anchor="middle" fill="#06b6d4" font-family="monospace" font-size="8" font-weight="600">CALL</text>
  <text x="150" y="426" fill="#b0b0c0" font-family="monospace" font-size="8">Group call GSSI 00000301 → slot 1</text>
  <text x="520" y="426" fill="#484860" font-family="monospace" font-size="8">duplex: half</text>

  <!-- Row 3 -->
  <rect x="24" y="438" width="584" height="24" rx="3" fill="rgba(139,92,246,0.04)"/>
  <text x="32" y="454" fill="#484860" font-family="monospace" font-size="8">14:23:05</text>
  <rect x="90" y="443" width="50" height="14" rx="3" fill="rgba(139,92,246,0.12)"/>
  <text x="115" y="454" text-anchor="middle" fill="#8b5cf6" font-family="monospace" font-size="8" font-weight="600">SDS</text>
  <text x="150" y="454" fill="#b0b0c0" font-family="monospace" font-size="8">SDS-TL from 09005678: "Status update 0x8001"</text>

  <!-- Row 4 -->
  <rect x="24" y="466" width="584" height="24" rx="3" fill="rgba(245,158,11,0.04)"/>
  <text x="32" y="482" fill="#484860" font-family="monospace" font-size="8">14:23:07</text>
  <rect x="90" y="471" width="50" height="14" rx="3" fill="rgba(245,158,11,0.12)"/>
  <text x="115" y="482" text-anchor="middle" fill="#f59e0b" font-family="monospace" font-size="8" font-weight="600">SCAN</text>
  <text x="150" y="482" fill="#b0b0c0" font-family="monospace" font-size="8">Locked on CH03 "Emergency" 434.000 MHz · signal -38 dBFS</text>

  <!-- Row 5 -->
  <rect x="24" y="494" width="584" height="24" rx="3" fill="rgba(255,255,255,0.02)"/>
  <text x="32" y="510" fill="#484860" font-family="monospace" font-size="8">14:23:09</text>
  <rect x="90" y="499" width="50" height="14" rx="3" fill="rgba(255,255,255,0.06)"/>
  <text x="115" y="510" text-anchor="middle" fill="#707088" font-family="monospace" font-size="8" font-weight="600">IDENT</text>
  <text x="150" y="510" fill="#b0b0c0" font-family="monospace" font-size="8">SYSINFO: LA 0x0003 · Color code 30 · TS 4</text>

  <!-- Row 6 -->
  <rect x="24" y="522" width="584" height="24" rx="3" fill="rgba(34,197,94,0.04)"/>
  <text x="32" y="538" fill="#484860" font-family="monospace" font-size="8">14:23:11</text>
  <rect x="90" y="527" width="50" height="14" rx="3" fill="rgba(34,197,94,0.12)"/>
  <text x="115" y="538" text-anchor="middle" fill="#22c55e" font-family="monospace" font-size="8" font-weight="600">REG</text>
  <text x="150" y="538" fill="#b0b0c0" font-family="monospace" font-size="8">ISSI 09009876 location update · cell 0x1A03</text>

  <!-- Row 7 -->
  <rect x="24" y="550" width="584" height="24" rx="3" fill="rgba(6,182,212,0.04)"/>
  <text x="32" y="566" fill="#484860" font-family="monospace" font-size="8">14:23:14</text>
  <rect x="90" y="555" width="50" height="14" rx="3" fill="rgba(244,63,94,0.12)"/>
  <text x="115" y="566" text-anchor="middle" fill="#f43f5e" font-family="monospace" font-size="8" font-weight="600">EMRG</text>
  <text x="150" y="566" fill="#f43f5e" font-family="monospace" font-size="8">Emergency call from ISSI 09001111 · priority 15</text>

  <!-- ═══ RIGHT PANEL ═══ -->
  <rect x="624" y="68" width="324" height="520" rx="8" fill="#0c0c14" stroke="rgba(255,255,255,0.06)"/>

  <!-- Active Calls section -->
  <text x="638" y="88" fill="#06b6d4" font-family="Inter, system-ui, sans-serif" font-size="10" font-weight="700">Active Calls</text>
  <rect x="632" y="96" width="308" height="90" rx="6" fill="#12121e" stroke="rgba(255,255,255,0.04)"/>

  <!-- Call 1 -->
  <circle cx="646" cy="114" r="4" fill="#22c55e"/>
  <text x="656" y="117" fill="#b0b0c0" font-family="monospace" font-size="8">Group 00000301 · GSSI</text>
  <text x="930" y="117" text-anchor="end" fill="#484860" font-family="monospace" font-size="7">02:34</text>
  <rect x="646" y="122" width="60" height="3" rx="1" fill="#22c55e" opacity="0.3"/>

  <!-- Call 2 -->
  <circle cx="646" cy="142" r="4" fill="#f59e0b"/>
  <text x="656" y="145" fill="#b0b0c0" font-family="monospace" font-size="8">Individual 09001234 → 09005678</text>
  <text x="930" y="145" text-anchor="end" fill="#484860" font-family="monospace" font-size="7">00:12</text>
  <rect x="646" y="150" width="30" height="3" rx="1" fill="#f59e0b" opacity="0.3"/>

  <!-- Call 3 -->
  <circle cx="646" cy="170" r="4" fill="#f43f5e"/>
  <text x="656" y="173" fill="#f43f5e" font-family="monospace" font-size="8">EMERGENCY 09001111 · prio 15</text>
  <text x="930" y="173" text-anchor="end" fill="#484860" font-family="monospace" font-size="7">00:03</text>
  <rect x="646" y="178" width="10" height="3" rx="1" fill="#f43f5e" opacity="0.5"/>

  <!-- SDS Messages section -->
  <text x="638" y="210" fill="#8b5cf6" font-family="Inter, system-ui, sans-serif" font-size="10" font-weight="700">SDS Messages</text>
  <rect x="632" y="218" width="308" height="80" rx="6" fill="#12121e" stroke="rgba(255,255,255,0.04)"/>

  <text x="646" y="236" fill="#484860" font-family="monospace" font-size="7">14:23:05</text>
  <text x="700" y="236" fill="#b0b0c0" font-family="monospace" font-size="8">09005678 → Status 0x8001</text>
  <text x="646" y="252" fill="#484860" font-family="monospace" font-size="7">14:22:41</text>
  <text x="700" y="252" fill="#b0b0c0" font-family="monospace" font-size="8">09003456 → "Unit on scene"</text>
  <text x="646" y="268" fill="#484860" font-family="monospace" font-size="7">14:22:18</text>
  <text x="700" y="268" fill="#b0b0c0" font-family="monospace" font-size="8">09001234 → Status 0x8004</text>
  <text x="646" y="284" fill="#484860" font-family="monospace" font-size="7">14:21:55</text>
  <text x="700" y="284" fill="#707088" font-family="monospace" font-size="8">09007890 → GPS position report</text>

  <!-- Audio Monitor section -->
  <text x="638" y="322" fill="#f59e0b" font-family="Inter, system-ui, sans-serif" font-size="10" font-weight="700">Audio Monitor</text>
  <rect x="632" y="330" width="308" height="50" rx="6" fill="#12121e" stroke="rgba(255,255,255,0.04)"/>

  <!-- Audio waveform (stylized) -->
  <g transform="translate(646, 355)">
    <rect x="0" y="-8" width="2" height="16" rx="1" fill="#22c55e" opacity="0.6"/>
    <rect x="5" y="-12" width="2" height="24" rx="1" fill="#22c55e" opacity="0.7"/>
    <rect x="10" y="-6" width="2" height="12" rx="1" fill="#22c55e" opacity="0.5"/>
    <rect x="15" y="-15" width="2" height="30" rx="1" fill="#22c55e" opacity="0.8"/>
    <rect x="20" y="-10" width="2" height="20" rx="1" fill="#22c55e" opacity="0.6"/>
    <rect x="25" y="-4" width="2" height="8" rx="1" fill="#22c55e" opacity="0.4"/>
    <rect x="30" y="-14" width="2" height="28" rx="1" fill="#22c55e" opacity="0.7"/>
    <rect x="35" y="-8" width="2" height="16" rx="1" fill="#22c55e" opacity="0.5"/>
    <rect x="40" y="-18" width="2" height="36" rx="1" fill="#22c55e" opacity="0.9"/>
    <rect x="45" y="-10" width="2" height="20" rx="1" fill="#22c55e" opacity="0.6"/>
    <rect x="50" y="-6" width="2" height="12" rx="1" fill="#22c55e" opacity="0.4"/>
    <rect x="55" y="-12" width="2" height="24" rx="1" fill="#22c55e" opacity="0.7"/>
    <rect x="60" y="-16" width="2" height="32" rx="1" fill="#22c55e" opacity="0.8"/>
    <rect x="65" y="-8" width="2" height="16" rx="1" fill="#22c55e" opacity="0.5"/>
    <rect x="70" y="-14" width="2" height="28" rx="1" fill="#22c55e" opacity="0.7"/>
    <rect x="75" y="-4" width="2" height="8" rx="1" fill="#22c55e" opacity="0.3"/>
    <rect x="80" y="-10" width="2" height="20" rx="1" fill="#22c55e" opacity="0.6"/>
    <rect x="85" y="-16" width="2" height="32" rx="1" fill="#22c55e" opacity="0.8"/>
    <rect x="90" y="-6" width="2" height="12" rx="1" fill="#22c55e" opacity="0.4"/>
    <rect x="95" y="-12" width="2" height="24" rx="1" fill="#22c55e" opacity="0.7"/>
  </g>

  <!-- Volume / controls -->
  <text x="770" y="345" fill="#484860" font-family="monospace" font-size="8">16-bit PCM · 16 kHz</text>
  <rect x="770" y="350" width="120" height="4" rx="2" fill="#12121e"/>
  <rect x="770" y="350" width="78" height="4" rx="2" fill="#22c55e" opacity="0.5"/>
  <circle cx="848" cy="352" r="5" fill="#22c55e"/>
  <text x="770" y="370" fill="#484860" font-family="monospace" font-size="7">Vol: 65%</text>
  <text x="880" y="370" text-anchor="end" fill="#484860" font-family="monospace" font-size="7">▶ Playing</text>

  <!-- Recordings section -->
  <text x="638" y="402" fill="#b0b0c0" font-family="Inter, system-ui, sans-serif" font-size="10" font-weight="700">Recordings</text>
  <rect x="632" y="410" width="308" height="70" rx="6" fill="#12121e" stroke="rgba(255,255,255,0.04)"/>

  <text x="646" y="428" fill="#484860" font-family="monospace" font-size="7">14:23:03</text>
  <text x="700" y="428" fill="#b0b0c0" font-family="monospace" font-size="8">rec_1423_grp301.wav</text>
  <text x="920" y="428" text-anchor="end" fill="#484860" font-family="monospace" font-size="7">02:34</text>

  <text x="646" y="444" fill="#484860" font-family="monospace" font-size="7">14:20:15</text>
  <text x="700" y="444" fill="#b0b0c0" font-family="monospace" font-size="8">rec_1420_ind5678.wav</text>
  <text x="920" y="444" text-anchor="end" fill="#484860" font-family="monospace" font-size="7">00:45</text>

  <text x="646" y="460" fill="#484860" font-family="monospace" font-size="7">14:18:02</text>
  <text x="700" y="460" fill="#707088" font-family="monospace" font-size="8">rec_1418_grp500.wav</text>
  <text x="920" y="460" text-anchor="end" fill="#484860" font-family="monospace" font-size="7">01:12</text>

  <text x="646" y="474" fill="#484860" font-family="monospace" font-size="7">14:15:30</text>
  <text x="700" y="474" fill="#707088" font-family="monospace" font-size="8">rec_1415_grp301.wav</text>
  <text x="920" y="474" text-anchor="end" fill="#484860" font-family="monospace" font-size="7">03:21</text>

  <!-- Radio Stats section -->
  <text x="638" y="504" fill="#707088" font-family="Inter, system-ui, sans-serif" font-size="10" font-weight="700">Radio</text>
  <rect x="632" y="512" width="308" height="68" rx="6" fill="#12121e" stroke="rgba(255,255,255,0.04)"/>

  <text x="646" y="530" fill="#484860" font-family="monospace" font-size="8">Frequency</text>
  <text x="920" y="530" text-anchor="end" fill="#22c55e" font-family="monospace" font-size="8">434.000 MHz</text>

  <text x="646" y="546" fill="#484860" font-family="monospace" font-size="8">Mode</text>
  <text x="920" y="546" text-anchor="end" fill="#f59e0b" font-family="monospace" font-size="8">TETRA</text>

  <text x="646" y="562" fill="#484860" font-family="monospace" font-size="8">Gain</text>
  <text x="920" y="562" text-anchor="end" fill="#b0b0c0" font-family="monospace" font-size="8">49.6 dB</text>

  <text x="646" y="578" fill="#484860" font-family="monospace" font-size="8">PPM</text>
  <text x="920" y="578" text-anchor="end" fill="#b0b0c0" font-family="monospace" font-size="8">0</text>
</svg>
